<?xml version="1.0" encoding="UTF-8"?>
<!-- Generated by Pixelmator Pro 3.6.13 -->
<svg width="58" height="58" viewBox="0 0 58 58" xmlns="http://www.w3.org/2000/svg">
    <clipPath id="clipPath1">
        <path d="M 0.32 45.460001 L 0.32 54.969996 C 0.32 54.969996 0.59 59.329997 4.900002 57.070003 C 9.209999 54.81 13.650001 52.56 13.650001 52.56 C 13.650001 52.56 14.889999 51.829997 13.650001 51.170001 C 12.409996 50.509997 1.419999 44.790002 1.419999 44.790002 C 1.269661 44.733247 1.110672 44.702806 0.950001 44.699998 C 0.650002 44.699998 0.310002 44.839998 0.310002 45.449998 M 15.069999 38.750001 C 15.150001 40.949998 15.069999 49.670002 15.069999 49.670002 C 15.069999 49.670002 14.760002 52.000003 16.889999 50.969996 C 19.019996 49.939998 26.080001 46.189998 27.669998 45.369997 C 29.819999 44.259996 27.669998 43.239999 27.669998 43.239999 L 16.919998 37.6 C 16.635055 37.451021 16.321151 37.365724 16 37.35 C 15.519996 37.35 15 37.629999 15.080001 38.750001 M 29.800003 31.259996 C 29.889999 33.460001 29.800003 42.180002 29.800003 42.180002 C 29.800003 42.180002 29.5 44.509996 31.620002 43.479997 C 33.739999 42.449998 40.820001 38.699998 42.400003 37.879999 C 44.550004 36.759996 42.400003 35.739999 42.400003 35.739999 L 31.639999 30.110002 C 31.353477 29.967968 31.039649 29.889507 30.720001 29.880001 C 30.239997 29.880001 29.720001 30.159997 29.800003 31.28 M 0.32 30.979997 C 0.400002 33.180002 0.32 41.899995 0.32 41.899995 C 0.32 41.899995 0.009999 44.229997 2.14 43.199998 C 4.270001 42.17 11.330001 38.42 12.919998 37.6 C 15.069999 36.489999 12.919998 35.460001 12.919998 35.460001 L 2.16 29.820003 C 1.878205 29.672122 1.567795 29.586841 1.25 29.570003 C 0.770001 29.570003 0.25 29.850002 0.329998 30.969995 M 15.099998 23.490001 C 15.190002 25.689998 15.099998 34.409997 15.099998 34.409997 C 15.099998 34.409997 14.79 36.739999 16.919998 35.710001 C 19.050003 34.680002 26.120002 30.939996 27.699996 30.110002 C 29.849998 29.000003 27.699996 27.969997 27.699996 27.969997 L 16.93 22.34 C 16.648086 22.192409 16.337745 22.107151 16.019996 22.09 C 15.54 22.09 15.019996 22.360004 15.099998 23.490001 M 44.540002 23.2 L 44.540002 34.879999 C 44.540002 34.879999 44.379999 36.589998 45.930002 35.799997 L 54.930002 31.159997 C 59.1 29.009998 54.930002 26.920002 54.930002 26.920002 L 45.930002 22.240001 C 45.728975 22.121944 45.502748 22.053386 45.269998 22.040004 C 44.470003 22.040004 44.570001 23.250003 44.570001 23.250003 M 0.32 15.880001 C 0.430001 18.119998 0.32 26.880001 0.32 26.880001 C 0.32 26.880001 0.009999 29.210002 2.14 28.180004 C 4.270001 27.149997 11.339996 23.399997 12.919998 22.579998 C 15.069999 21.460002 12.919998 20.439998 12.919998 20.439998 L 2.169998 14.759998 C 1.885056 14.611026 1.571152 14.525722 1.25 14.509998 C 0.770001 14.509998 0.25 14.780002 0.329998 15.909999 M 29.800003 15.610004 C 29.889999 17.810001 29.800003 26.530002 29.800003 26.530002 C 29.800003 26.530002 29.489997 28.880001 31.61 27.880001 C 33.730005 26.880001 40.800004 23.110004 42.390001 22.280002 C 44.540002 21.170002 42.390001 20.140003 42.390001 20.140003 L 31.639999 14.460002 C 31.358085 14.312412 31.047744 14.227153 30.730003 14.210002 C 30.25 14.210002 29.730003 14.479999 29.809997 15.610004 M 15.080001 8.09 C 15.169998 10.290004 15.080001 19.009998 15.080001 19.009998 C 15.080001 19.009998 14.769996 21.34 16.900001 20.310001 C 19.029998 19.280002 26.099998 15.530002 27.68 14.710002 C 29.830001 13.600002 27.68 12.570003 27.68 12.570003 L 16.919998 6.939998 C 16.635055 6.791027 16.321151 6.705722 16 6.689998 C 15.519996 6.689998 15 6.969997 15.080001 8.09 M 0.380001 2.95 L 0.380001 12.460002 C 0.380001 13.579998 1.489998 13.119998 1.489998 13.119998 L 13.720001 6.729999 C 14.959999 6.070003 13.720001 5.34 13.720001 5.34 C 13.720001 5.34 9.279998 3.09 4.970002 0.84 C 4.308728 0.45367 3.564766 0.230823 2.799999 0.189998 C 0.57 0.189998 0.400002 2.939998 0.400002 2.939998"/>
    </clipPath>
    <g id="Group" clip-path="url(#clipPath1)">
        <linearGradient id="linearGradient1" x1="0.29" y1="30.2905" x2="56.76" y2="30.2905" gradientUnits="userSpaceOnUse">
            <stop offset="1e-05" stop-color="#fbd446" stop-opacity="1"/>
            <stop offset="0.06" stop-color="#fbd446" stop-opacity="1"/>
            <stop offset="1" stop-color="#e2b512" stop-opacity="1"/>
        </linearGradient>
        <path id="Path" fill="url(#linearGradient1)" stroke="none" d="M 0 0.200001 L 59.080002 0.200001 L 59.080002 59.329998 L 0 59.329998 Z"/>
    </g>
</svg>
